<svg width="73" height="73" viewBox="0 0 73 73" fill="none" xmlns="http://www.w3.org/2000/svg">
<circle cx="36.5" cy="36.5" r="35.5" stroke="url(#paint0_linear_8_101)" stroke-width="2"/>
<g filter="url(#filter0_d_8_101)">
<path d="M12 35.7329C12 21.5166 23.135 11 37.5001 11C51.8651 11 62.998 21.5188 62.998 35.7329C62.998 49.9471 51.863 60.4637 37.4979 60.4637C34.9267 60.4637 32.4404 60.1237 30.1242 59.4862C29.6721 59.3645 29.1919 59.402 28.7642 59.5925L23.6854 61.8237C23.3793 61.96 23.0442 62.0187 22.71 61.9948C22.3757 61.9708 22.0525 61.8649 21.7689 61.6863C21.4853 61.5078 21.2501 61.2621 21.084 60.971C20.9179 60.68 20.8261 60.3525 20.8167 60.0175L20.6679 55.47C20.6564 55.196 20.5903 54.927 20.4735 54.6789C20.3568 54.4308 20.1917 54.2085 19.9879 54.025C17.4328 51.7193 15.3989 48.8953 14.0218 45.7414C12.6448 42.5875 11.9562 39.1761 12.0022 35.735L12 35.7329Z" fill="white" fill-opacity="0.85" shape-rendering="crispEdges"/>
</g>
<path d="M31.4604 22.2434L33.8952 24.5564C34.8083 25.4086 35.2952 26.5651 35.2952 27.8434C35.2952 29.0608 35.7822 30.2173 36.6344 31.0695L36.9387 31.3738L39.7387 22.3043" fill="url(#paint1_linear_8_101)"/>
<path d="M23.1821 30.3392L26.53 30.2174C27.7473 30.1566 28.9647 30.6435 29.8169 31.4957C30.6691 32.3479 31.8256 32.7739 33.043 32.7739H33.4691L28.9647 24.4348" fill="url(#paint2_linear_8_101)"/>
<path d="M23.1826 41.9044L25.4348 39.4696C26.287 38.5566 27.4435 38.0088 28.6609 38.0088C29.8783 38.0088 30.9739 37.4609 31.8261 36.6088L32.1304 36.3044L23 33.687" fill="url(#paint3_linear_8_101)"/>
<path d="M31.4611 49.9391L31.2785 46.5913C31.2177 45.3739 31.6438 44.1565 32.4959 43.2435C33.2872 42.3913 33.7742 41.1739 33.7133 40.0174V39.5913L25.4351 44.2783" fill="url(#paint4_linear_8_101)"/>
<path d="M43.026 49.6955L40.5303 47.5042C39.6173 46.7129 39.0695 45.5564 39.0086 44.2782C38.9477 43.0608 38.3999 41.9651 37.5477 41.1129L37.2434 40.8086L34.8086 49.9999" fill="url(#paint5_linear_8_101)"/>
<path d="M50.939 41.2347L47.5911 41.4782C46.3737 41.5999 45.1564 41.1739 44.2433 40.3217C43.3303 39.5304 42.1738 39.1043 40.9564 39.1652H40.5303L45.3998 47.3217" fill="url(#paint6_linear_8_101)"/>
<path d="M50.391 29.7305L48.2606 32.287C47.4693 33.2 46.3128 33.8087 45.0954 33.8696C43.878 33.9305 42.7823 34.4783 41.991 35.3913L41.7476 35.6957L50.9997 37.887" fill="url(#paint7_linear_8_101)"/>
<path d="M41.8085 22L42.1129 25.3478C42.2346 26.5652 41.8694 27.7826 41.0172 28.7565C40.2259 29.6696 39.8607 30.8261 39.9216 32.0435L39.9824 32.4696L48.0172 27.4174" fill="url(#paint8_linear_8_101)"/>
<defs>
<filter id="filter0_d_8_101" x="6" y="9" width="62.998" height="63" filterUnits="userSpaceOnUse" color-interpolation-filters="sRGB">
<feFlood flood-opacity="0" result="BackgroundImageFix"/>
<feColorMatrix in="SourceAlpha" type="matrix" values="0 0 0 0 0 0 0 0 0 0 0 0 0 0 0 0 0 0 127 0" result="hardAlpha"/>
<feOffset dy="4"/>
<feGaussianBlur stdDeviation="3"/>
<feComposite in2="hardAlpha" operator="out"/>
<feColorMatrix type="matrix" values="0 0 0 0 0 0 0 0 0 0 0 0 0 0 0 0 0 0 0.25 0"/>
<feBlend mode="normal" in2="BackgroundImageFix" result="effect1_dropShadow_8_101"/>
<feBlend mode="normal" in="SourceGraphic" in2="effect1_dropShadow_8_101" result="shape"/>
</filter>
<linearGradient id="paint0_linear_8_101" x1="73" y1="36" x2="-3.5" y2="36" gradientUnits="userSpaceOnUse">
<stop stop-color="#20146C"/>
<stop offset="1" stop-color="#FBBC05"/>
</linearGradient>
<linearGradient id="paint1_linear_8_101" x1="31.4604" y1="26.4117" x2="39.4716" y2="26.7381" gradientUnits="userSpaceOnUse">
<stop offset="0.203125" stop-color="#FF9D00"/>
<stop offset="0.708333" stop-color="#242561"/>
</linearGradient>
<linearGradient id="paint2_linear_8_101" x1="23.1821" y1="28.2418" x2="33.1232" y2="28.793" gradientUnits="userSpaceOnUse">
<stop offset="0.203125" stop-color="#FF9D00"/>
<stop offset="0.708333" stop-color="#242561"/>
</linearGradient>
<linearGradient id="paint3_linear_8_101" x1="23" y1="37.4384" x2="31.8285" y2="37.8793" gradientUnits="userSpaceOnUse">
<stop offset="0.203125" stop-color="#FF9D00"/>
<stop offset="0.708333" stop-color="#242561"/>
</linearGradient>
<linearGradient id="paint4_linear_8_101" x1="25.4351" y1="44.3153" x2="33.4541" y2="44.6038" gradientUnits="userSpaceOnUse">
<stop offset="0.203125" stop-color="#FF9D00"/>
<stop offset="0.708333" stop-color="#242561"/>
</linearGradient>
<linearGradient id="paint5_linear_8_101" x1="34.8086" y1="45.0046" x2="42.7612" y2="45.3242" gradientUnits="userSpaceOnUse">
<stop offset="0.203125" stop-color="#FF9D00"/>
<stop offset="0.708333" stop-color="#242561"/>
</linearGradient>
<linearGradient id="paint6_linear_8_101" x1="40.5303" y1="42.8857" x2="50.5869" y2="43.4621" gradientUnits="userSpaceOnUse">
<stop offset="0.203125" stop-color="#FF9D00"/>
<stop offset="0.708333" stop-color="#242561"/>
</linearGradient>
<linearGradient id="paint7_linear_8_101" x1="41.7476" y1="33.4541" x2="50.6929" y2="33.9101" gradientUnits="userSpaceOnUse">
<stop offset="0.203125" stop-color="#FF9D00"/>
<stop offset="0.708333" stop-color="#242561"/>
</linearGradient>
<linearGradient id="paint8_linear_8_101" x1="39.915" y1="26.7796" x2="47.7594" y2="27.0524" gradientUnits="userSpaceOnUse">
<stop offset="0.203125" stop-color="#FF9D00"/>
<stop offset="0.708333" stop-color="#242561"/>
</linearGradient>
</defs>
</svg>
