<svg width="208" height="48" viewBox="0 0 208 48" fill="none" xmlns="http://www.w3.org/2000/svg">
<path d="M11.2377 30.3791C11.2377 32.6785 11.7424 34.444 12.4021 35.512C13.267 36.911 14.5571 37.5037 15.8723 37.5037C17.5686 37.5037 19.1204 37.0827 22.111 32.9466C24.5068 29.6314 27.3298 24.978 29.2293 22.0607L32.4461 17.1183C34.6806 13.6859 37.267 9.87016 40.2325 7.28377C42.6534 5.17277 45.2649 4 47.8932 4C52.3058 4 56.5089 6.55707 59.7257 11.3529C63.2461 16.6052 64.955 23.2209 64.955 30.0482C64.955 34.1068 64.155 37.089 62.7937 39.445C61.4785 41.7236 58.9152 44 54.6031 44V37.5037C58.2953 37.5037 59.2168 34.111 59.2168 30.2283C59.2168 24.6953 57.9267 18.555 55.0848 14.1675C53.0681 11.0555 50.4544 9.15393 47.5791 9.15393C44.4691 9.15393 41.9665 11.4995 39.1539 15.6817C37.6586 17.9037 36.1236 20.6115 34.4 23.667L32.5026 27.0283C28.6911 33.7864 27.7257 35.3257 25.8199 37.866C22.4796 42.3141 19.6272 44 15.8723 44C11.4178 44 8.60105 42.0712 6.85655 39.1644C5.43246 36.7958 4.73299 33.688 4.73299 30.1466L11.2377 30.3791Z" fill="#B7B7B7"/>
<path d="M9.86189 11.8115C12.8441 7.21466 17.1478 4 22.0839 4C24.9425 4 27.7844 4.84607 30.7519 7.26911C33.998 9.91832 37.4577 14.2806 41.7739 21.4702L43.3216 24.0503C47.0577 30.2743 49.1834 33.4764 50.4273 34.9864C52.0273 36.9257 53.1478 37.5037 54.6033 37.5037C58.2954 37.5037 59.2169 34.111 59.2169 30.2283L64.9551 30.0482C64.9551 34.1068 64.1551 37.089 62.7938 39.445C61.4786 41.7236 58.9153 44 54.6033 44C51.9226 44 49.5478 43.4178 46.9216 40.9403C44.9027 39.0387 42.5425 35.6607 40.7268 32.6241L35.3258 23.6021C32.6158 19.0743 30.13 15.6984 28.6912 14.1696C27.1436 12.5257 25.154 10.5403 21.9792 10.5403C19.4095 10.5403 17.2273 12.3435 15.4012 15.1016L9.86189 11.8115Z" fill="#B7B7B7"/>
<path d="M21.9791 10.5403C19.4094 10.5403 17.2272 12.3435 15.401 15.1016C12.8188 18.999 11.2377 24.8042 11.2377 30.3791C11.2377 32.6785 11.7424 34.444 12.4021 35.512L6.85655 39.1644C5.43246 36.7958 4.73299 33.688 4.73299 30.1466C4.73299 23.7068 6.50053 16.9948 9.86178 11.8115C12.844 7.21466 17.1476 4 22.0838 4L21.9791 10.5403Z" fill="#B7B7B7"/>
<path d="M77.6002 5.26489H85.1248L97.9185 28.4104L110.714 5.26489H118.076V43.2963H111.937V14.1487L100.716 34.333H94.9572L83.7384 14.1487V43.2963H77.6002V5.26489ZM137.309 19.445C132.907 19.445 130.256 22.7581 129.621 26.8607H144.561C144.254 22.6345 141.816 19.445 137.309 19.445ZM123.535 29.1979C123.535 20.5654 129.114 14.2827 137.416 14.2827C145.581 14.2827 150.457 20.4858 150.457 29.6586V31.3445H129.621C130.36 35.8073 133.322 38.8146 138.097 38.8146C141.906 38.8146 144.287 37.6523 146.545 35.5267L149.805 39.5204C146.733 42.3455 142.825 43.9748 137.879 43.9748C128.892 43.9748 123.535 37.422 123.535 29.1979ZM157.9 19.9895H152.249V14.9633H157.9V6.65128H163.822V14.9633H172.406V19.9895H163.822V32.7288C163.822 37.0785 165.213 38.6241 168.631 38.6241C170.191 38.6241 171.085 38.49 172.406 38.2701V43.2419C170.76 43.7068 169.19 43.9204 167.489 43.9204C161.095 43.9204 157.9 40.4272 157.9 33.4345V19.9895ZM197.345 24.8775C196.155 21.8743 193.502 19.6628 189.602 19.6628C184.534 19.6628 181.29 23.2586 181.29 29.1162C181.29 34.8272 184.277 38.5968 189.359 38.5968C193.355 38.5968 196.207 36.2722 197.345 33.3801V24.8775ZM203.267 43.2963H197.454V39.3298C195.828 41.6649 192.871 43.9748 188.082 43.9748C180.379 43.9748 175.232 37.5267 175.232 29.1162C175.232 20.6261 180.503 14.2827 188.409 14.2827C192.316 14.2827 195.382 15.845 197.454 18.6031V14.9633H203.267V43.2963Z" fill="#B7B7B7"/>
</svg>
