<svg width="176" height="48" viewBox="0 0 176 48" fill="none" xmlns="http://www.w3.org/2000/svg">
<path d="M11.987 19.7338H27.2793V24.0315L21.5286 24.473C12.2394 25.169 9.33356 27.6269 9.33356 34.5214V35.9112C9.33356 40.9574 12.8722 44 18.3054 44C22.6031 44 25.0673 42.9885 28.1014 39.8915H28.606V43.1777H34.735V13.0349H11.987V19.7338ZM27.2793 34.2691C25.3869 36.1614 22.54 37.423 20.2019 37.423C17.6788 37.423 16.6001 36.4747 16.6632 34.3889C16.7263 31.4831 17.8007 30.7871 22.6662 30.3456L27.2793 29.904V34.2691Z" fill="#B7B7B7"/>
<path fill-rule="evenodd" clip-rule="evenodd" d="M47.623 13.037H59.4396V19.1661H65.884V43.1777H58.3652V19.799H47.623V43.1777H40.1021V4H47.623V13.037ZM157.579 25.169L153.029 24.7253C150.506 24.473 149.875 23.8422 149.875 21.8196C149.875 19.5446 150.76 18.9748 154.291 18.9748C157.444 18.9748 158.334 19.4815 158.778 21.6303H165.855C165.666 14.4268 163.454 12.5892 154.669 12.5892C145.064 12.5892 142.663 14.4226 142.663 21.8154C142.663 28.5774 144.431 30.4088 151.574 31.1046L155.302 31.4831C158.651 31.7984 159.471 32.4314 159.471 34.454C159.471 36.9184 158.46 37.5491 154.354 37.5491C150.752 37.5491 149.803 36.9815 149.614 34.6433H142.466C142.655 42.0991 144.93 43.9957 154.03 43.9957C164.139 43.9957 166.666 41.9731 166.666 33.7583C166.677 27.6332 164.846 25.8629 157.579 25.169ZM118.867 25.7368C118.867 16.0059 115.52 12.5934 105.913 12.5934C96.4342 12.5934 92.7065 17.0088 92.7065 28.0117C92.7065 40.0197 95.9927 43.9916 106.609 43.9916C114.256 43.9916 117.477 41.6534 118.551 35.0808H111.285C110.463 37.1118 109.58 37.5534 106.493 37.5534C101.817 37.5534 100.616 36.2265 100.364 30.6022H118.373C118.674 28.9971 118.84 27.3695 118.867 25.7368ZM100.417 24.6623C100.48 20.4298 102.185 18.8507 106.23 18.8507C110.084 18.8507 111.663 20.4298 111.792 24.6623H100.417ZM123.244 14.3616V43.1777H130.765V19.4814H139.807V13.0349H130.765V12.2149C130.826 10.4445 131.27 9.93985 132.723 9.93985H140.938V4H132.088C126.087 4 123.244 5.83137 123.244 14.3616ZM78.9176 43.1777H71.3986V13.037H90.1033V20.1144H78.9176V43.1777Z" fill="#B7B7B7"/>
</svg>
