<svg width="46" height="46" viewBox="0 0 46 46" fill="none" xmlns="http://www.w3.org/2000/svg">
<path d="M13.9 0.399902L17.9 4.19989C19.4 5.59989 20.2 7.4999 20.2 9.5999C20.2 11.5999 21 13.4999 22.4 14.8999L22.9 15.3999L27.5 0.499893" fill="url(#paint0_linear_2_128)"/>
<path d="M0.299805 13.7L5.7998 13.5C7.7998 13.4 9.7998 14.2 11.1998 15.6C12.5998 17 14.4998 17.7 16.4998 17.7H17.1998L9.7998 4" fill="url(#paint1_linear_2_128)"/>
<path d="M0.300003 32.7L4 28.7C5.4 27.2 7.3 26.3 9.3 26.3C11.3 26.3 13.1 25.4 14.5 24L15 23.5L0 19.2" fill="url(#paint2_linear_2_128)"/>
<path d="M13.9 45.8999L13.6 40.3999C13.5 38.3999 14.2 36.3999 15.6 34.8999C16.9 33.4999 17.7 31.4999 17.6 29.5999V28.8999L4 36.5999" fill="url(#paint3_linear_2_128)"/>
<path d="M32.9 45.4999L28.8 41.8999C27.3 40.5999 26.4 38.6999 26.3 36.5999C26.2 34.5999 25.3 32.7999 23.9 31.3999L23.4 30.8999L19.4 45.9999" fill="url(#paint4_linear_2_128)"/>
<path d="M45.8998 31.5999L40.3998 31.9999C38.3998 32.1999 36.3998 31.4999 34.8998 30.0999C33.3998 28.7999 31.4998 28.0999 29.4998 28.1999H28.7998L36.7998 41.5999" fill="url(#paint5_linear_2_128)"/>
<path d="M44.9998 12.7L41.4998 16.9C40.1998 18.4 38.2998 19.4 36.2998 19.5C34.2998 19.6 32.4998 20.5 31.1998 22L30.7998 22.5L45.9998 26.1" fill="url(#paint6_linear_2_128)"/>
<path d="M30.8998 0L31.3998 5.5C31.5998 7.5 30.9998 9.50001 29.5998 11.1C28.2998 12.6 27.6998 14.5 27.7998 16.5L27.8998 17.2L41.0998 8.90001" fill="url(#paint7_linear_2_128)"/>
<defs>
<linearGradient id="paint0_linear_2_128" x1="13.9" y1="7.24773" x2="27.0613" y2="7.78404" gradientUnits="userSpaceOnUse">
<stop offset="0.203125" stop-color="#FF9D00"/>
<stop offset="0.708333" stop-color="#242561"/>
</linearGradient>
<linearGradient id="paint1_linear_2_128" x1="0.299805" y1="10.2543" x2="16.6315" y2="11.1598" gradientUnits="userSpaceOnUse">
<stop offset="0.203125" stop-color="#FF9D00"/>
<stop offset="0.708333" stop-color="#242561"/>
</linearGradient>
<linearGradient id="paint2_linear_2_128" x1="9.30882e-09" y1="25.363" x2="14.504" y2="26.0873" gradientUnits="userSpaceOnUse">
<stop offset="0.203125" stop-color="#FF9D00"/>
<stop offset="0.708333" stop-color="#242561"/>
</linearGradient>
<linearGradient id="paint3_linear_2_128" x1="4" y1="36.6608" x2="17.1742" y2="37.1347" gradientUnits="userSpaceOnUse">
<stop offset="0.203125" stop-color="#FF9D00"/>
<stop offset="0.708333" stop-color="#242561"/>
</linearGradient>
<linearGradient id="paint4_linear_2_128" x1="19.4" y1="37.7934" x2="32.4651" y2="38.3184" gradientUnits="userSpaceOnUse">
<stop offset="0.203125" stop-color="#FF9D00"/>
<stop offset="0.708333" stop-color="#242561"/>
</linearGradient>
<linearGradient id="paint5_linear_2_128" x1="28.7998" y1="34.3121" x2="45.3213" y2="35.259" gradientUnits="userSpaceOnUse">
<stop offset="0.203125" stop-color="#FF9D00"/>
<stop offset="0.708333" stop-color="#242561"/>
</linearGradient>
<linearGradient id="paint6_linear_2_128" x1="30.7998" y1="18.8173" x2="45.4957" y2="19.5666" gradientUnits="userSpaceOnUse">
<stop offset="0.203125" stop-color="#FF9D00"/>
<stop offset="0.708333" stop-color="#242561"/>
</linearGradient>
<linearGradient id="paint7_linear_2_128" x1="27.7891" y1="7.85217" x2="40.6762" y2="8.3004" gradientUnits="userSpaceOnUse">
<stop offset="0.203125" stop-color="#FF9D00"/>
<stop offset="0.708333" stop-color="#242561"/>
</linearGradient>
</defs>
</svg>
