<svg width="272" height="48" viewBox="0 0 272 48" fill="none" xmlns="http://www.w3.org/2000/svg">
<path d="M44.2338 24.2135C44.2338 35.1411 35.4356 44 24.5822 44C13.7287 44 4.93115 35.1437 4.93115 24.2135C4.93115 13.2833 13.7294 4.42773 24.5822 4.42773C35.435 4.42773 44.2338 13.286 44.2338 24.2135ZM65.792 24.2135C65.792 34.5005 61.3925 42.8389 55.9661 42.8389C50.5397 42.8389 46.1403 34.4978 46.1403 24.2135C46.1403 13.9293 50.5397 5.58815 55.9661 5.58815C61.3925 5.58815 65.792 13.9293 65.792 24.2135ZM74.6095 24.2135C74.6095 33.4301 73.0621 40.9011 71.1536 40.9011C69.2452 40.9011 67.6977 33.4275 67.6977 24.2135C67.6977 14.9996 69.2452 7.52596 71.1543 7.52596C73.0634 7.52596 74.6095 14.9976 74.6095 24.2135ZM128.845 6.14333L128.9 6.13132V5.70759H117.724L107.347 30.097L96.9697 5.70759H84.9265V6.13132L84.9805 6.14333C87.0204 6.60376 88.0561 7.2904 88.0561 9.76672V38.7571C88.0561 41.2334 87.0164 41.9201 84.9765 42.3805L84.9225 42.3925V42.8176H93.0934V42.3938L93.0394 42.3818C90.9995 41.9214 89.9638 41.2348 89.9638 38.7584V11.4483L103.294 42.8176H104.05L117.769 10.5735V39.4744C117.594 41.4303 116.568 42.0342 114.721 42.4512L114.666 42.4639V42.8843H128.9V42.4639L128.845 42.4512C126.996 42.0342 125.945 41.4303 125.77 39.4744L125.761 9.76672H125.77C125.77 7.2904 126.806 6.60376 128.845 6.14333ZM135.346 25.3479C135.579 20.1391 137.45 16.3796 140.588 16.3148C141.557 16.3308 142.369 16.6485 143 17.2597C144.341 18.5616 144.972 21.2821 144.874 25.3479H135.346ZM135.205 26.816H151.888V26.7459C151.84 22.7628 150.687 19.6646 148.462 17.5373C146.539 15.6989 143.691 14.6873 140.701 14.6873H140.634C139.082 14.6873 137.178 15.0637 135.823 15.7456C134.281 16.4596 132.921 17.5273 131.79 18.9286C129.968 21.186 128.864 24.2369 128.596 27.6654C128.587 27.7682 128.58 27.8709 128.573 27.9737C128.565 28.0765 128.561 28.1686 128.556 28.2667C128.532 28.7487 128.524 29.2314 128.532 29.714C128.713 37.4793 132.907 43.685 140.358 43.685C146.897 43.685 150.705 38.9046 151.655 32.4879L151.175 32.3191C149.507 35.7677 146.511 37.8576 143.101 37.6027C138.446 37.2544 134.88 32.5346 135.203 26.8173L135.205 26.816ZM170.749 37.3391C170.202 38.637 169.06 39.351 167.53 39.351C166 39.351 164.602 38.3007 163.608 36.3922C162.54 34.3437 161.978 31.4476 161.978 28.0171C161.978 20.8771 164.199 16.2588 167.636 16.2588C169.076 16.2588 170.209 16.9728 170.749 18.2186V37.3391ZM181.816 42.4292C179.776 41.9468 178.74 41.2281 178.74 38.6257V4L166.346 7.65141V8.09849L166.423 8.09249C168.132 7.95436 169.292 8.19058 169.965 8.81249C170.492 9.29961 170.749 10.047 170.749 11.0986V15.8457C169.527 15.0657 168.074 14.686 166.31 14.686C162.734 14.686 159.465 16.192 157.107 18.9273C154.65 21.7779 153.35 25.6736 153.35 30.1918C153.35 38.2613 157.322 43.685 163.234 43.685C166.693 43.685 169.475 41.7899 170.749 38.5936V42.8843H181.87V42.4399L181.816 42.4292ZM192.445 8.70906C192.445 6.18938 190.545 4.28894 188.025 4.28894C185.516 4.28894 183.554 6.23075 183.554 8.70906C183.554 11.1874 185.518 13.1292 188.025 13.1292C190.545 13.1292 192.445 11.2287 192.445 8.70906ZM195.37 42.4292C193.33 41.9468 192.295 41.2281 192.295 38.6257H192.286V14.7681L181.165 17.961V18.3948L181.232 18.4008C183.638 18.615 184.297 19.4437 184.297 22.2557V42.8843H195.427V42.4399L195.37 42.4292ZM223.867 42.4292C221.827 41.9468 220.791 41.2281 220.791 38.6257V14.7681L210.203 17.8556V18.2907L210.265 18.2973C212.233 18.5042 212.801 19.3804 212.801 22.205V37.2857C212.145 38.5836 210.915 39.3543 209.424 39.4064C207.006 39.4064 205.675 37.7735 205.675 34.8088V14.7687L194.554 17.9617V18.3948L194.621 18.4008C197.027 18.6143 197.686 19.4431 197.686 22.2557V35.019C197.681 35.9099 197.758 36.7995 197.918 37.6761L198.118 38.5469C199.06 41.9207 201.527 43.685 205.392 43.685C208.665 43.685 211.535 41.6585 212.798 38.4875V42.8916H223.92V42.4472L223.867 42.4292ZM267.069 42.8843V42.4392L267.015 42.4265C264.802 41.9161 263.94 40.9538 263.94 38.9947V22.7662C263.94 17.7061 261.098 14.686 256.337 14.686C252.867 14.686 249.941 16.6912 248.815 19.8148C247.92 16.505 245.345 14.686 241.537 14.686C238.193 14.686 235.572 16.451 234.447 19.4324V14.7701L223.326 17.8322V18.2687L223.393 18.2747C225.771 18.4855 226.458 19.3383 226.458 22.0782V42.8843H236.834V42.4399L236.78 42.4265C235.014 42.0115 234.444 41.2548 234.444 39.313V20.7116C234.911 19.6206 235.853 18.328 237.714 18.328C240.025 18.328 241.197 19.9295 241.197 23.0845V42.8843H251.576V42.4399L251.521 42.4265C249.756 42.0115 249.186 41.2548 249.186 39.313V22.7642C249.19 22.1454 249.141 21.5274 249.039 20.9171C249.534 19.7314 250.53 18.328 252.467 18.328C254.811 18.328 255.95 19.8835 255.95 23.0845V42.8843H267.069Z" fill="#B7B7B7"/>
</svg>
