<svg width="288" height="48" viewBox="0 0 288 48" fill="none" xmlns="http://www.w3.org/2000/svg">
<path d="M18.4105 4V35.9461L4.8818 43.9356L4.86963 11.9826L18.4105 4Z" fill="#B7B7B7"/>
<path d="M31.9462 27.9513V43.4348L18.4105 43.4417V35.9461L31.9462 27.9513Z" fill="#B7B7B7"/>
<path d="M45.4995 7.46784H53.4734V37.0505H67.7986V43.4418H45.4995V7.46784Z" fill="#B7B7B7"/>
<path d="M70.2669 34.0828V17.132H77.3533V33.0761C77.3533 36.6481 78.782 38.3562 81.8309 38.3562C84.835 38.3562 87.1951 36.4468 87.1951 32.5696V17.132H94.2814V43.4415H87.1951V39.3174C85.8683 41.9867 83.2596 43.9935 79.0244 43.9935C74.0046 43.9935 70.2669 40.9735 70.2669 34.0828ZM97.5347 30.6147V30.2121C97.5347 21.7107 103.491 16.528 110.827 16.528C116.785 16.528 122.295 19.1973 122.939 26.7375H116.197C115.706 23.672 113.882 22.2627 110.979 22.2627C107.287 22.2627 104.825 25.0814 104.825 30.1081V30.5108C104.825 35.7909 107.14 38.5121 111.126 38.5121C113.984 38.5121 116.293 36.804 116.638 33.4334H123.086C122.69 39.6747 118.264 44 110.776 44C103.25 43.9936 97.5347 39.2136 97.5347 30.6147ZM125.746 9.58533C125.746 7.31873 127.519 5.61066 129.783 5.61066C132.098 5.61066 133.872 7.31873 133.872 9.58533C133.872 11.8519 132.098 13.56 129.783 13.56C127.519 13.56 125.746 11.8454 125.746 9.58533ZM126.288 17.132H133.374V43.4415H126.288V17.132ZM136.92 30.6602V30.2575C136.92 21.6067 141.793 16.5216 148.241 16.5216C152.375 16.5216 154.939 18.3855 156.368 21.0482V5.20801H163.455V43.4415H156.368V39.0641C155.042 41.7334 151.891 43.9935 148.096 43.9935C141.844 43.9935 136.92 39.4148 136.92 30.6602ZM156.56 30.4134V30.0107C156.56 24.7761 154.295 22.1134 150.404 22.1134C146.417 22.1134 144.198 24.88 144.198 30.1147V30.5173C144.198 35.7519 146.66 38.3173 150.207 38.3173C153.951 38.3107 156.56 35.7454 156.56 30.4134ZM166.752 30.6147V30.2121C166.752 21.7107 172.709 16.528 180.045 16.528C186.001 16.528 191.513 19.1973 192.157 26.7375H185.415C184.924 23.672 183.1 22.2627 180.197 22.2627C176.504 22.2627 174.042 25.0814 174.042 30.1081V30.5108C174.042 35.7909 176.357 38.5121 180.344 38.5121C183.202 38.5121 185.51 36.804 185.855 33.4334H192.304C191.908 39.6747 187.481 44 179.993 44C172.461 43.9936 166.752 39.2136 166.752 30.6147ZM195.301 5.20801H202.439V21.308C203.721 18.6907 206.528 16.528 210.807 16.528C215.878 16.528 219.469 19.6454 219.469 26.692V43.4415H212.332V27.7441C212.332 24.1721 210.954 22.464 207.803 22.464C204.748 22.464 202.439 24.3735 202.439 28.2507V43.4415H195.301V5.20801ZM222.429 36.1481C222.429 30.0107 227.939 27.6987 235.817 27.6987H238.718V26.6401C238.718 23.5227 237.781 21.8081 234.534 21.8081C231.728 21.8081 230.445 23.2694 230.153 25.5295H223.41C223.851 19.2882 228.679 16.5216 234.981 16.5216C241.282 16.5216 245.76 19.1388 245.76 26.2828V43.435H238.82V40.2657C237.341 42.3764 235.076 43.9871 231.039 43.9871C226.37 43.9936 222.429 41.6815 222.429 36.1481ZM238.725 34.2322V32.0176H235.969C231.837 32.0176 229.419 32.9203 229.419 35.7389C229.419 37.6483 230.554 38.9083 233.163 38.9083C236.314 38.9147 238.725 37.1548 238.725 34.2322ZM250.391 17.132H257.528V22.1653C259.154 18.6452 261.662 16.7813 265.846 16.7293V23.5227C260.577 23.4707 257.528 25.2307 257.528 30.264V43.4415H250.391V17.132ZM270.477 35.6415V22.3082H267.179V17.1256H270.477V11.4428H277.563V17.1256H282.977V22.3082H277.563V34.9856C277.563 37.0963 278.596 38.1029 280.42 38.1029C281.504 38.1029 282.289 37.9536 283.131 37.6028V43.2401C282.148 43.5908 280.72 43.9416 278.8 43.9416C273.378 43.9416 270.477 41.1229 270.477 35.6415Z" fill="#B7B7B7"/>
</svg>
