<svg width="200" height="48" viewBox="0 0 200 48" fill="none" xmlns="http://www.w3.org/2000/svg">
<path fill-rule="evenodd" clip-rule="evenodd" d="M36.3629 36.4479C36.3964 36.4431 36.4346 36.4351 36.4632 36.4288L33.6656 44H22.5643L25.268 37.5179H25.3667C26.1167 37.5179 31.1849 37.4749 36.3709 36.4288L36.3629 36.4479ZM187.437 18.0715C187.437 26.6299 180.674 32.1376 169.529 32.1376H162.824V44H132.542L120.323 27.891V44H91.1131L87.9063 35.1597C87.6977 35.1199 84.4399 34.5069 80.5866 34.5069C76.7477 34.5069 73.3434 35.1072 73.1523 35.1406L69.8611 44H54.9686L52.5404 37.2727C56.1883 38.1803 58.9859 39.6754 60.3791 40.5018L60.9969 38.9812C58.7486 37.6452 52.464 34.4639 43.4485 34.4639C36.4696 34.4639 32.0335 36.1676 24.7855 36.1676C13.0091 36.1676 4.88851 30.4339 4.46338 30.1488L7.59378 22.5012C8.40425 23.0314 16.2334 28.0869 25.2505 28.0869C26.7822 28.0869 28.0958 28.0072 29.3171 27.8846L39.0953 4.00058H55.3475L65.0238 29.0836L75.2669 4.00058H91.5414L105.783 40.9158V4.00058H125.239C138.469 4.00058 144.949 10.0719 144.949 18.0715C144.949 26.079 138.649 29.168 136.899 29.961L148.296 42.3584V4.00058H169.529C181.269 4.00058 187.437 9.94293 187.437 18.0715ZM48.9084 27.2127L44.4437 14.8965L40.0681 26.6936C40.8101 26.665 41.5999 26.6474 42.4549 26.6474C46.0025 26.6474 48.625 27.1586 48.9084 27.2127ZM85.0418 26.9611L80.5866 15.0509L76.0502 26.9611C76.2588 26.9356 78.6998 26.6522 80.5866 26.6522C82.6009 26.6522 84.8252 26.9261 85.0418 26.9611ZM130.003 18.0715C130.003 14.1004 128.003 10.5926 122.46 10.5926H120.323V25.5201H122.46C127.449 25.5201 130.003 22.6891 130.003 18.0715ZM172.488 18.0715C172.488 13.7198 170.179 10.5926 165.775 10.5926H162.824V25.5201H165.775C169.911 25.5201 172.488 22.7225 172.488 18.0715Z" fill="#B7B7B7"/>
<path fill-rule="evenodd" clip-rule="evenodd" d="M191.556 4C193.771 4 195.537 5.80086 195.537 8.05233C195.537 10.3388 193.771 12.1222 191.536 12.1222C189.322 12.1222 187.522 10.3388 187.522 8.05233C187.522 5.80086 189.322 4 191.536 4H191.556ZM191.536 4.63054C189.754 4.63054 188.294 6.1623 188.294 8.05233C188.294 9.97738 189.754 11.4916 191.556 11.4916C193.354 11.5107 194.795 9.97738 194.795 8.07143C194.795 6.1623 193.354 4.63054 191.556 4.63054H191.536ZM190.779 10.4105H190.06V5.89002C190.437 5.83748 190.797 5.78334 191.34 5.78334C192.023 5.78334 192.474 5.92665 192.746 6.12409C193.012 6.32153 193.157 6.62884 193.157 7.06193C193.157 7.65585 192.76 8.0157 192.276 8.1606V8.19563C192.669 8.26888 192.942 8.62714 193.031 9.2943C193.141 9.99808 193.247 10.2672 193.321 10.4105H192.563C192.454 10.2672 192.346 9.85478 192.257 9.25927C192.15 8.68127 191.86 8.46632 191.286 8.46632H190.779V10.4105ZM190.779 7.90902H191.303C191.896 7.90902 192.4 7.69247 192.4 7.13359C192.4 6.7387 192.114 6.34064 191.303 6.34064C191.069 6.34064 190.905 6.36134 190.779 6.37726V7.90902Z" fill="#B7B7B7"/>
</svg>
