<svg width="280" height="48" viewBox="0 0 280 48" fill="none" xmlns="http://www.w3.org/2000/svg">
<path d="M141.979 4.03027C152.925 4.03027 161.798 12.9033 161.798 23.8489C161.798 34.7951 152.925 43.6687 141.979 43.6687C131.034 43.6687 122.161 34.7951 122.161 23.8489C122.161 12.9033 131.034 4.03027 141.979 4.03027Z" fill="#B7B7B7"/>
<path d="M134.547 16.417V31.2815H139.502H144.457H149.412V16.417L144.457 26.3263L141.979 21.3717L139.502 26.3263L134.547 16.417Z" fill="white"/>
<path d="M71.1558 4C73.0735 4 74.5113 4.53253 75.5764 5.33133C76.5788 6.08314 77.2986 7.07081 77.7794 8.07324L77.8668 8.26131C78.4526 9.4856 78.7721 10.924 78.8253 12.4688V17.8479H73.4462V12.4688C73.4462 11.4027 73.1794 10.6572 72.5937 10.0187C72.3274 9.75187 71.8481 9.59211 71.2618 9.59211C70.25 9.59211 69.7707 10.3377 69.5044 11.0305C69.3447 11.4565 69.2914 11.9358 69.2382 12.4688V35.5317C69.2914 36.6495 69.611 37.3956 70.1435 37.9808C70.4098 38.2476 70.7825 38.4074 71.2618 38.4074C72.4872 38.4074 72.9664 37.7683 73.2332 36.9695C73.3925 36.5968 73.4462 36.1169 73.4462 35.5317V30.1515H78.8253V35.5317C78.7754 37.0294 78.4915 38.3868 77.9735 39.5602L77.8668 39.7925C77.4157 40.7949 76.7283 41.7501 75.761 42.5254L75.5764 42.6687C74.5113 43.5202 73.0735 44 71.1558 44C69.3149 44 67.8666 43.5578 66.8114 42.7691L66.6815 42.6687C65.6791 41.9164 65.0069 40.9758 64.5312 39.9798L64.4443 39.7925C63.8586 38.5671 63.539 37.1293 63.4858 35.5317V12.4688C63.5357 11.0205 63.8197 9.66581 64.3376 8.49335L64.4443 8.26131C64.9241 7.19519 65.6164 6.13012 66.6815 5.33133C67.7466 4.53253 69.2382 4 71.1558 4ZM214.277 4C216.194 4 217.632 4.53253 218.697 5.33133C219.7 6.08314 220.42 7.07081 220.901 8.07324L220.988 8.26131C221.573 9.4856 221.893 10.924 221.947 12.4688V17.8479H216.567V12.4688C216.567 11.4027 216.3 10.6572 215.715 10.0187C215.449 9.75187 214.969 9.59211 214.383 9.59211C213.371 9.59211 212.892 10.3377 212.626 11.0305C212.466 11.4565 212.413 11.9358 212.36 12.4688V35.5317C212.413 36.6495 212.732 37.3956 213.265 37.9808C213.531 38.2476 213.904 38.4074 214.383 38.4074C215.609 38.4074 216.088 37.7683 216.354 36.9695C216.514 36.5968 216.567 36.1169 216.567 35.5317V30.1515H221.947V35.5317C221.897 37.0294 221.612 38.3868 221.095 39.5602L220.988 39.7925C220.537 40.7949 219.849 41.7501 218.882 42.5254L218.697 42.6687C217.632 43.5202 216.194 44 214.277 44C212.436 44 210.988 43.5578 209.933 42.7691L209.803 42.6687C208.8 41.9164 208.128 40.9758 207.653 39.9798L207.566 39.7925C206.98 38.5671 206.66 37.1293 206.607 35.5317V12.4688C206.657 11.0205 206.941 9.66581 207.459 8.49335L207.566 8.26131C208.045 7.19519 208.738 6.13012 209.803 5.33133C210.868 4.53253 212.36 4 214.277 4ZM88.04 4.4256V20.6177H92.5144V4.4256H98.2662V43.5741H92.5144V26.5299H88.04V43.5741H82.2876V4.4256H88.04ZM115.683 4.42571V10.3379H108.28V20.6178H113.606V26.9022H108.28V37.6615H115.683V43.5742H102.527V4.42571H115.683ZM173.851 4.42555L176.141 24.772L176.248 26.0506H176.673L176.833 24.772L179.284 4.42555H183.438L185.888 24.772L186.048 26.0506H186.474L186.581 24.772L188.87 4.42555H194.197L188.924 43.574H184.451L181.787 25.0382L181.467 22.7483H181.255L180.935 25.0382L178.271 43.574H173.798L168.524 4.42555H173.851ZM202.719 4.42571V43.5742H196.967V4.42571H202.719ZM231.161 4.42571V18.1144H231.374L231.64 17.4748L236.434 4.42571H242.026L236.754 17.3151L242.72 43.5742H237.126L233.132 26.53L232.972 25.7307H232.813L232.493 26.53L231.161 29.7257V43.5742H225.409V4.42571H231.161ZM258.538 4.42571V10.3379H251.135V20.6178H256.462V26.9022H251.135V37.6615H258.538V43.5742H245.383V4.42571H258.538ZM276.328 4.42571V10.3379H270.895V43.5742H265.143V10.3379H259.711V4.42571H276.328ZM16.6149 4.42587L22.5276 43.5738H16.9344L15.8694 35.5843H10.33L9.26491 43.5738H3.67227L9.58443 4.42587H16.6149ZM30.9431 4.42592C33.446 4.42592 35.9494 5.06496 37.867 6.87609C39.7847 8.6867 41.0628 11.6699 41.0628 16.1437C41.0628 20.6175 39.7847 23.547 37.867 25.3581C35.9494 27.1693 33.446 27.9148 30.9431 27.9148V43.5739H25.1907V4.42592H30.9431ZM55.2835 4.42587L61.1962 43.5738H55.603L54.5379 35.5843H48.9985L47.9335 43.5738H42.3408L48.253 4.42587H55.2835ZM13.2594 16.1437H12.9399L12.7802 17.1555L11.1293 29.5129H15.0706L13.4192 17.1555L13.2594 16.1437ZM51.928 16.1437H51.6085L51.4487 17.1555L49.7979 29.5129H53.7391L52.0878 17.1555L51.928 16.1437ZM30.9431 10.2848V22.0559C32.7004 22.0559 33.8187 21.7358 34.4583 20.8305C35.0974 19.9785 35.2571 18.5407 35.2571 16.3567L35.2546 15.8986C35.2318 13.9557 35.0517 12.56 34.4583 11.6699C33.8187 10.7103 32.7004 10.2848 30.9431 10.2848Z" fill="#B7B7B7"/>
</svg>
