<svg width="256" height="48" viewBox="0 0 256 48" fill="none" xmlns="http://www.w3.org/2000/svg">
<path d="M134.842 4.14551C123.605 4.14551 114.489 12.9236 114.489 23.7576C114.489 35.2757 123.209 43.8861 134.842 43.8861C146.184 43.8861 155.14 35.1619 155.14 23.9837C155.14 12.8719 146.244 4.14551 134.842 4.14551Z" fill="#B7B7B7"/>
<path d="M19.2948 4.86089H8.35303V43.0253H19.2379C25.0129 43.0253 29.1895 41.6568 32.8533 38.6218C37.2006 35.0164 39.7789 29.5799 39.7789 23.9616C39.7789 12.6939 31.3613 4.86089 19.2948 4.86089ZM27.9968 33.5245C25.644 35.6475 22.615 36.5646 17.8014 36.5646H15.8018V11.3231H17.8014C22.615 11.3231 25.528 12.1825 27.9968 14.412C30.5714 16.7013 32.107 20.2461 32.107 23.9069C32.107 27.5751 30.5714 31.244 27.9968 33.5245ZM43.215 43.0253H50.6512V4.86089H43.215V43.0253ZM68.857 19.5005C64.3878 17.8444 63.0724 16.7523 63.0724 14.6994C63.0724 12.2941 65.4142 10.4644 68.6242 10.4644C70.8559 10.4644 72.687 11.3793 74.6386 13.5474L78.5248 8.46259C75.3207 5.65232 71.487 4.22391 67.3052 4.22391C60.5592 4.22391 55.4049 8.91853 55.4049 15.1502C55.4049 20.4197 57.8066 23.1066 64.7905 25.6309C67.7109 26.6558 69.1954 27.3394 69.9411 27.8064C71.4286 28.7796 72.1757 30.1482 72.1757 31.7495C72.1757 34.8443 69.7127 37.1299 66.3889 37.1299C62.8404 37.1299 59.9821 35.3578 58.264 32.0392L53.4629 36.6798C56.8895 41.7085 61.0107 43.9475 66.6822 43.9475C74.4073 43.9475 79.8409 38.7903 79.8409 31.4103C79.8409 25.3434 77.3292 22.5945 68.857 19.5005ZM82.1864 23.9616C82.1864 35.1901 91.0022 43.8862 102.336 43.8862C105.541 43.8862 108.287 43.2529 111.667 41.6568V32.8964C108.687 35.8751 106.054 37.0737 102.676 37.0737C95.181 37.0737 89.8553 31.6357 89.8553 23.9069C89.8553 16.5853 95.3473 10.8044 102.336 10.8044C105.879 10.8044 108.573 12.0628 111.667 15.0955V6.33586C108.405 4.68132 105.711 4 102.506 4C91.2298 4 82.1864 12.872 82.1864 23.9616ZM171.983 30.497L161.795 4.86089H153.668L169.87 44H173.873L190.358 4.86089H182.291L171.983 30.497ZM193.742 43.0253H214.857V36.5646H201.181V26.2561H214.333V19.7938H201.181V11.3231H214.857V4.86089H193.742V43.0253ZM244.323 16.1241C244.323 8.97469 239.408 4.86089 230.818 4.86089H219.771V43.0253H227.219V27.6867H228.193L238.489 43.0253H247.647L235.621 26.9492C241.238 25.8008 244.323 21.9649 244.323 16.1241ZM229.385 22.4268H227.219V10.862H229.504C234.149 10.862 236.666 12.8136 236.666 16.5276C236.666 20.3591 234.149 22.4268 229.385 22.4268Z" fill="#B7B7B7"/>
</svg>
