<svg width="160" height="96" viewBox="0 0 160 96" fill="none" xmlns="http://www.w3.org/2000/svg">
<path d="M69.5245 53.6387L68.6342 21.1732C68.6342 20.1642 67.8033 19.3927 66.8537 19.3927C65.8447 19.3927 65.0731 20.1642 65.0731 21.1732L64.2422 53.6387L65.0731 69.2482C65.0731 70.2572 65.904 71.0287 66.8537 71.0287C67.8626 71.0287 68.6342 70.2572 68.6342 69.2482L69.5245 53.6387Z" fill="#B7B7B7"/>
<path d="M63.1146 53.6386L62.1056 19.9267C62.1056 18.9771 61.3341 18.2649 60.4438 18.2649C59.5535 18.2649 58.7819 18.9771 58.7819 19.9267L57.8917 53.5792L58.7819 69.3075C58.7819 70.2571 59.5535 70.9693 60.4438 70.9693C61.3341 70.9693 62.1056 70.2571 62.1056 69.3075L63.1146 53.6386Z" fill="#B7B7B7"/>
<path d="M49.2851 20.164C49.2258 19.3925 48.6322 18.7396 47.8607 18.7396C47.0891 18.7396 46.4956 19.3331 46.4362 20.164L45.4272 53.5791L46.4362 69.5448C46.4362 70.3163 47.0891 70.9098 47.8607 70.9098C48.6322 70.9098 49.2258 70.3163 49.2851 69.4854L50.4722 53.5198L49.2851 20.164Z" fill="#B7B7B7"/>
<path d="M55.6952 19.0365C55.6952 18.2055 54.983 17.4933 54.1521 17.4933C53.3212 17.4933 52.6089 18.1462 52.6089 19.0365L51.6593 53.5792L52.6089 69.4262C52.6089 70.2571 53.3212 70.9693 54.1521 70.9693C54.983 70.9693 55.6359 70.3164 55.6952 69.4262L56.7636 53.5792L55.6952 19.0365Z" fill="#B7B7B7"/>
<path d="M23.3487 70.5535C23.8235 70.5535 24.1796 70.1974 24.239 69.6632L25.7821 53.5789L24.239 36.9603C24.1796 36.4855 23.8235 36.0701 23.3487 36.0701C22.8739 36.0701 22.5178 36.4262 22.4584 36.9603L21.0933 53.5789L22.4584 69.6632C22.4584 70.1974 22.8739 70.5535 23.3487 70.5535Z" fill="#B7B7B7"/>
<path d="M75.9941 53.6385L75.1631 15.0598C75.1631 14.4069 74.807 13.8134 74.2729 13.4573C73.9761 13.2792 73.62 13.1012 73.2045 13.1012C72.8484 13.1012 72.4923 13.2199 72.1362 13.3979C71.602 13.754 71.2459 14.3476 71.2459 15.0004V15.3565L70.5337 53.5791L71.2459 69.0699V69.1293C71.2459 69.5447 71.424 69.9602 71.7207 70.257C72.0768 70.6724 72.611 70.9692 73.2045 70.9692C73.7387 70.9692 74.2135 70.7318 74.5696 70.435C74.9257 70.0789 75.1631 69.6041 75.1631 69.0699L75.2225 67.5268L75.9941 53.6385Z" fill="#B7B7B7"/>
<path d="M30.4113 38.1477C30.352 37.5542 29.9365 37.1388 29.4023 37.1388C28.8682 37.1388 28.3934 37.5542 28.3934 38.1477L27.147 53.5792L28.3934 69.7823C28.4527 70.3758 28.8682 70.7912 29.4023 70.7912C29.9365 70.7912 30.4113 70.3758 30.4113 69.7823L31.8358 53.5792L30.4113 38.1477Z" fill="#B7B7B7"/>
<path d="M35.5154 27.3458C34.9219 27.3458 34.3877 27.8206 34.3877 28.4735L33.2007 53.5793L34.3877 69.7823C34.4471 70.4352 34.9219 70.91 35.5154 70.91C36.1089 70.91 36.6431 70.4352 36.6431 69.7823L38.0082 53.5793L36.6431 28.4735C36.6431 27.88 36.1089 27.3458 35.5154 27.3458Z" fill="#B7B7B7"/>
<path d="M42.8755 69.7824L44.1218 53.6387L42.8755 22.7757C42.8161 22.0635 42.2819 21.5293 41.5697 21.5293C40.8575 21.5293 40.3233 22.0635 40.264 22.7757L39.1363 53.6387L40.264 69.7824C40.264 70.4946 40.8575 71.0287 41.5697 71.0287C42.2819 71.0881 42.8161 70.4946 42.8755 69.7824Z" fill="#B7B7B7"/>
<path d="M80.6826 9.77708C80.3859 9.59902 80.0298 9.48032 79.6143 9.48032C79.1395 9.48032 78.6647 9.65837 78.3086 9.95513C77.8337 10.3112 77.537 10.9048 77.537 11.5576V11.795L76.7061 53.6974L77.1215 61.4132L77.537 68.9508C77.537 70.0785 78.4866 70.9688 79.6143 70.9688C80.742 70.9688 81.6323 70.0192 81.6916 68.8915L82.5819 53.6381L81.6916 11.5576C81.6323 10.7861 81.2761 10.1332 80.6826 9.77708Z" fill="#B7B7B7"/>
<path d="M5.7212 62.4818C6.01796 62.4818 6.25537 62.2444 6.31472 61.8883L7.62046 53.579L6.31472 45.151C6.25537 44.7949 6.01796 44.5575 5.7212 44.5575C5.42444 44.5575 5.12768 44.7949 5.12768 45.151L4 53.579L5.12768 61.8883C5.12768 62.2444 5.42444 62.4818 5.7212 62.4818Z" fill="#B7B7B7"/>
<path d="M11.3598 67.5267C11.6566 67.5267 11.9533 67.2893 12.0127 66.9332L13.7339 53.579L12.0127 39.9281C11.9533 39.572 11.7159 39.3346 11.3598 39.3346C11.0631 39.3346 10.7663 39.572 10.7069 39.9281L9.22314 53.579L10.7069 66.9332C10.7663 67.2893 11.0037 67.5267 11.3598 67.5267Z" fill="#B7B7B7"/>
<path d="M17.2947 69.9601C17.7102 69.9601 18.0069 69.6633 18.0663 69.1885L19.6688 53.579L18.0663 37.3759C18.0069 36.9605 17.7102 36.6044 17.2947 36.6044C16.8792 36.6044 16.5825 36.9011 16.5231 37.3759L15.0987 53.579L16.5231 69.1885C16.5825 69.604 16.8792 69.9601 17.2947 69.9601Z" fill="#B7B7B7"/>
<path d="M137.245 33.6963C134.693 33.6963 132.259 34.2305 130.004 35.1207C128.52 18.3242 114.394 5.08871 97.1824 5.08871C92.9685 5.08871 88.8732 5.91964 85.2527 7.34408C83.8283 7.87825 83.4722 8.47177 83.4722 9.5401V68.8326C83.4722 69.9603 84.3625 70.8505 85.4901 70.9692H137.304C147.631 70.9692 156 62.7193 156 52.3921C155.941 42.0649 147.572 33.6963 137.245 33.6963Z" fill="#B7B7B7"/>
<path d="M18.8975 82.2459C16.7015 81.7117 16.108 81.4743 16.108 80.5841C16.108 79.9905 16.5828 79.3377 18.0666 79.3377C19.313 79.3377 20.322 79.8718 21.2122 80.7621L23.2302 78.8035C21.9245 77.4384 20.322 76.6075 18.1853 76.6075C15.4551 76.6075 13.2591 78.1506 13.2591 80.6434C13.2591 83.3736 15.0397 84.2045 17.5918 84.7387C20.2033 85.3322 20.6781 85.7477 20.6781 86.6379C20.6781 87.7063 19.9065 88.1217 18.2447 88.1217C16.9389 88.1217 15.6925 87.6469 14.6835 86.5192L12.6656 88.2998C13.7339 89.8429 15.7519 90.7926 18.0073 90.7926C21.8058 90.7926 23.4083 89.012 23.4083 86.4005C23.527 83.4923 21.0935 82.7207 18.8975 82.2459ZM31.6582 76.6668C27.8597 76.6668 25.6636 79.5751 25.6636 83.7891C25.6636 88.003 27.919 90.9113 31.6582 90.9113C35.3973 90.9113 37.6527 88.003 37.6527 83.7891C37.6527 79.5751 35.3973 76.6668 31.6582 76.6668ZM31.6582 88.1217C29.4028 88.1217 28.5125 86.2225 28.5125 83.7297C28.5125 81.2369 29.4622 79.3377 31.6582 79.3377C33.9135 79.3377 34.8038 81.2369 34.8038 83.7297C34.8038 86.2225 33.8542 88.1217 31.6582 88.1217ZM48.8108 84.62C48.8108 86.816 47.7425 88.1811 45.962 88.1811C44.1814 88.1811 43.1131 86.7566 43.1131 84.5606V76.8449H40.3235V84.62C40.3235 88.6559 42.5789 90.9113 45.9026 90.9113C49.4044 90.9113 51.4817 88.5965 51.4817 84.62V76.9042H48.6921V84.62H48.8108ZM63.4707 82.7207C63.4707 83.4923 63.5301 85.2135 63.5301 85.7477C63.352 85.3915 62.8772 84.6793 62.5805 84.2045L57.6543 76.9042H54.9834V90.7332H57.7136V84.62C57.7136 83.8484 57.6543 82.1272 57.6543 81.593C57.8323 81.9491 58.3071 82.6614 58.6039 83.1362L63.6488 90.6739H66.1416V76.8449H63.4114V82.7207H63.4707ZM74.0947 76.8449H69.762V90.6739H73.8573C77.4184 90.6739 80.9202 88.5965 80.9202 83.7891C80.9202 78.6848 78.0119 76.8449 74.0947 76.8449ZM73.8573 88.003H72.4922V79.5751H73.976C76.8843 79.5751 78.1306 80.9995 78.1306 83.7891C78.1306 86.2818 76.7655 88.003 73.8573 88.003ZM89.4668 79.397C90.7132 79.397 91.4848 79.9312 92.019 80.8808L94.5711 79.6938C93.6808 77.9132 92.1377 76.6075 89.5262 76.6075C85.9057 76.6075 83.4129 79.5157 83.4129 83.7297C83.4129 88.0624 85.8464 90.8519 89.4668 90.8519C91.9596 90.8519 93.6215 89.6649 94.5711 87.7063L92.2564 86.3412C91.5441 87.5876 90.7726 88.1217 89.5262 88.1217C87.4489 88.1217 86.2618 86.2225 86.2618 83.7297C86.2618 81.1776 87.4489 79.397 89.4668 79.397ZM99.7347 76.8449H96.9452V90.6739H105.254V87.9437H99.7347V76.8449ZM112.555 76.6668C108.756 76.6668 106.56 79.5751 106.56 83.7891C106.56 88.003 108.816 90.9113 112.555 90.9113C116.353 90.9113 118.549 88.003 118.549 83.7891C118.549 79.5751 116.353 76.6668 112.555 76.6668ZM112.555 88.1217C110.299 88.1217 109.409 86.2225 109.409 83.7297C109.409 81.2369 110.359 79.3377 112.555 79.3377C114.81 79.3377 115.7 81.2369 115.7 83.7297C115.7 86.2225 114.81 88.1217 112.555 88.1217ZM129.707 84.62C129.707 86.816 128.639 88.1811 126.858 88.1811C125.078 88.1811 124.01 86.7566 124.01 84.5606V76.8449H121.22V84.62C121.22 88.6559 123.475 90.9113 126.799 90.9113C130.301 90.9113 132.378 88.5965 132.378 84.62V76.9042H129.589V84.62H129.707ZM140.272 76.8449H135.939V90.6739H140.035C143.596 90.6739 147.097 88.5965 147.097 83.7891C147.097 78.6848 144.189 76.8449 140.272 76.8449ZM140.035 88.003H138.729V79.5751H140.213C143.121 79.5751 144.308 80.9995 144.308 83.7891C144.308 86.2818 142.943 88.003 140.035 88.003Z" fill="#B7B7B7"/>
</svg>
