<svg width="23" height="38" viewBox="0 0 23 38" fill="none" xmlns="http://www.w3.org/2000/svg">
<path d="M0.995262 0.999748C0.679768 1.3146 0.429467 1.68857 0.258687 2.10028C0.0879067 2.51198 0 2.95332 0 3.39904C0 3.84476 0.0879067 4.2861 0.258687 4.69781C0.429467 5.10951 0.679768 5.48349 0.995262 5.79834L14.1999 19.003L0.995262 32.2076C0.35893 32.8439 0.00144104 33.707 0.00144104 34.6069C0.00144104 35.5068 0.35893 36.3699 0.995262 37.0062C1.63159 37.6425 2.49465 38 3.39456 38C4.29447 38 5.15752 37.6425 5.79385 37.0062L21.4148 21.3852C21.7303 21.0704 21.9806 20.6964 22.1514 20.2847C22.3221 19.873 22.41 19.4317 22.41 18.9859C22.41 18.5402 22.3221 18.0989 22.1514 17.6872C21.9806 17.2755 21.7303 16.9015 21.4148 16.5867L5.79385 0.965715C4.50061 -0.327522 2.32253 -0.327521 0.995262 0.999748Z" fill="url(#paint0_linear_2_508)"/>
<defs>
<linearGradient id="paint0_linear_2_508" x1="0" y1="19" x2="22" y2="19" gradientUnits="userSpaceOnUse">
<stop stop-color="#242561"/>
<stop offset="1" stop-color="#FF9D00"/>
</linearGradient>
</defs>
</svg>
