<svg width="65" height="65" viewBox="0 0 65 65" fill="none" xmlns="http://www.w3.org/2000/svg">
<circle cx="32.5" cy="32.5" r="32.5" fill="#FF9D00"/>
<path d="M29.308 34.744C30.6333 34.744 31.6227 34.4453 32.276 33.848C32.948 33.232 33.284 32.448 33.284 31.496V31.3C33.284 30.2733 32.9573 29.508 32.304 29.004C31.6693 28.4813 30.8293 28.22 29.784 28.22C28.776 28.22 27.9547 28.444 27.32 28.892C26.6853 29.3213 26.1627 29.9093 25.752 30.656L24.016 29.312C24.2587 28.92 24.548 28.5373 24.884 28.164C25.2387 27.772 25.6493 27.4267 26.116 27.128C26.5827 26.8293 27.124 26.5867 27.74 26.4C28.356 26.2133 29.056 26.12 29.84 26.12C30.6613 26.12 31.436 26.232 32.164 26.456C32.892 26.6613 33.5173 26.9787 34.04 27.408C34.5813 27.8187 35.0013 28.332 35.3 28.948C35.6173 29.564 35.776 30.264 35.776 31.048C35.776 31.6827 35.6733 32.252 35.468 32.756C35.2813 33.26 35.02 33.6987 34.684 34.072C34.348 34.4453 33.9467 34.7627 33.48 35.024C33.032 35.2853 32.5467 35.4813 32.024 35.612V35.724C32.5467 35.836 33.0507 36.0227 33.536 36.284C34.04 36.5267 34.4787 36.8533 34.852 37.264C35.244 37.656 35.552 38.1413 35.776 38.72C36.0187 39.28 36.14 39.924 36.14 40.652C36.14 41.492 35.9813 42.2667 35.664 42.976C35.3467 43.6667 34.8987 44.264 34.32 44.768C33.7413 45.2533 33.0413 45.636 32.22 45.916C31.3987 46.196 30.4933 46.336 29.504 46.336C28.664 46.336 27.9173 46.2427 27.264 46.056C26.6107 45.8693 26.032 45.6173 25.528 45.3C25.024 44.9827 24.576 44.628 24.184 44.236C23.8107 43.844 23.4747 43.4333 23.176 43.004L24.94 41.66C25.1827 42.052 25.444 42.4067 25.724 42.724C26.0227 43.0413 26.3493 43.312 26.704 43.536C27.0587 43.76 27.46 43.9373 27.908 44.068C28.356 44.18 28.8787 44.236 29.476 44.236C30.8573 44.236 31.9027 43.928 32.612 43.312C33.3213 42.6773 33.676 41.7813 33.676 40.624V40.4C33.676 39.2427 33.3213 38.356 32.612 37.74C31.9027 37.1053 30.8573 36.788 29.476 36.788H27.18V34.744H29.308Z" fill="white"/>
</svg>
