<svg width="65" height="65" viewBox="0 0 65 65" fill="none" xmlns="http://www.w3.org/2000/svg">
<circle cx="32.5" cy="32.5" r="32.5" fill="#FF9D00"/>
<path d="M38.924 46H26.1V43.592L32.484 37.712C33.3987 36.872 34.164 35.9853 34.78 35.052C35.396 34.1 35.704 33.148 35.704 32.196V31.86C35.704 30.7773 35.4053 29.9 34.808 29.228C34.2107 28.556 33.3053 28.22 32.092 28.22C31.4947 28.22 30.972 28.304 30.524 28.472C30.076 28.64 29.684 28.8733 29.348 29.172C29.0307 29.4707 28.76 29.8253 28.536 30.236C28.3307 30.628 28.1627 31.0573 28.032 31.524L25.932 30.712C26.1187 30.1333 26.3707 29.5733 26.688 29.032C27.024 28.472 27.4347 27.9773 27.92 27.548C28.424 27.1187 29.0213 26.7733 29.712 26.512C30.4213 26.2507 31.252 26.12 32.204 26.12C33.156 26.12 34.0053 26.26 34.752 26.54C35.4987 26.82 36.124 27.212 36.628 27.716C37.132 28.22 37.5147 28.8173 37.776 29.508C38.056 30.1987 38.196 30.964 38.196 31.804C38.196 32.5693 38.084 33.2787 37.86 33.932C37.6547 34.5853 37.3653 35.2107 36.992 35.808C36.6187 36.3867 36.1613 36.956 35.62 37.516C35.0973 38.076 34.528 38.636 33.912 39.196L28.648 43.928H38.924V46Z" fill="white"/>
</svg>
