<svg width="23" height="38" viewBox="0 0 23 38" fill="none" xmlns="http://www.w3.org/2000/svg">
<path d="M21.4149 37.0003C21.7304 36.6854 21.9807 36.3114 22.1515 35.8997C22.3222 35.488 22.4102 35.0467 22.4102 34.601C22.4102 34.1552 22.3222 33.7139 22.1515 33.3022C21.9807 32.8905 21.7304 32.5165 21.4149 32.2017L8.21027 18.997L21.4149 5.79241C22.0512 5.15608 22.4087 4.29303 22.4087 3.39312C22.4087 2.49321 22.0512 1.63015 21.4149 0.993813C20.7786 0.35748 19.9155 0 19.0156 0C18.1157 0 17.2526 0.35748 16.6163 0.993813L0.995365 16.6148C0.679871 16.9296 0.429571 17.3036 0.258791 17.7153C0.0880107 18.127 0.000106812 18.5683 0.000106812 19.0141C0.000106812 19.4598 0.0880107 19.9011 0.258791 20.3128C0.429571 20.7245 0.679871 21.0985 0.995365 21.4133L16.6163 37.0343C17.9095 38.3275 20.0876 38.3275 21.4149 37.0003Z" fill="url(#paint0_linear_2_509)"/>
<defs>
<linearGradient id="paint0_linear_2_509" x1="22" y1="19" x2="2.02519e-08" y2="19" gradientUnits="userSpaceOnUse">
<stop stop-color="#242561"/>
<stop offset="1" stop-color="#FF9D00"/>
</linearGradient>
</defs>
</svg>
